PathFileType	4	(X/Y/Z)	Kaydara	
DataRate	CameraRate	NumFrames	NumMarkers	Units	OrigDataRate	OrigDataStartFrame	OrigNumFrames	
60.00	60.00	4	74	mm	60.00	1127	200	
Frame#	Time	N_lasi			N_rasi			N_rpsi			N_lpsi			N_fneck			N_bneck			N_fhead			N_rhead			N_lhead			N_rshld			N_relbtop			N_relbext			N_relblow			N_rwrext			N_rwrtop			N_rwrlow			N_lshld			N_lelbext			N_lelbtop			N_lwrext			N_lwrtop			N_lwrlow			N_rtopleg			N_ltopleg			N_rkneefr			N_rkneebk			N_rkneeis			N_lkneefr			N_lknssbk			N_lkneeis			N_rankfr			N_rankis			N_rankbk			N_lankfr			N_lankbk			N_lankis			Z_lasi			Z_rasi			Z_rpsi			Z_lpsi			Z_fneck			Z_bneck			Z_fhead			Z_rhead			Z_lhead			Z_rshld			Z_relbtop			Z_relbext			Z_relblow			Z_rwrext			Z_rwrtop			Z_rwrlow			Z_lshld			Z_lelbext			Z_lelblow			Z_lelbtop			Z_lwrext			Z_lwrtop			Z_lwrlow			Z_rtopleg			Z_ltopleg			Z_rkneefr			Z_rkneebk			Z_rkneeis			Z_lkneefr			Z_lknssbk			Z_lkneeis			Z_rankfr			Z_rankis			Z_lankfr			Z_lankbk			Z_lankis			N_lelblow			Z_rankbk			
		X1	Y1	Z1	X2	Y2	Z2	X3	Y3	Z3	X4	Y4	Z4	X5	Y5	Z5	X6	Y6	Z6	X7	Y7	Z7	X8	Y8	Z8	X9	Y9	Z9	X10	Y10	Z10	X11	Y11	Z11	X12	Y12	Z12	X13	Y13	Z13	X14	Y14	Z14	X15	Y15	Z15	X16	Y16	Z16	X17	Y17	Z17	X18	Y18	Z18	X19	Y19	Z19	X20	Y20	Z20	X21	Y21	Z21	X22	Y22	Z22	X23	Y23	Z23	X24	Y24	Z24	X25	Y25	Z25	X26	Y26	Z26	X27	Y27	Z27	X28	Y28	Z28	X29	Y29	Z29	X30	Y30	Z30	X31	Y31	Z31	X32	Y32	Z32	X33	Y33	Z33	X34	Y34	Z34	X35	Y35	Z35	X36	Y36	Z36	X37	Y37	Z37	X38	Y38	Z38	X39	Y39	Z39	X40	Y40	Z40	X41	Y41	Z41	X42	Y42	Z42	X43	Y43	Z43	X44	Y44	Z44	X45	Y45	Z45	X46	Y46	Z46	X47	Y47	Z47	X48	Y48	Z48	X49	Y49	Z49	X50	Y50	Z50	X51	Y51	Z51	X52	Y52	Z52	X53	Y53	Z53	X54	Y54	Z54	X55	Y55	Z55	X56	Y56	Z56	X57	Y57	Z57	X58	Y58	Z58	X59	Y59	Z59	X60	Y60	Z60	X61	Y61	Z61	X62	Y62	Z62	X63	Y63	Z63	X64	Y64	Z64	X65	Y65	Z65	X66	Y66	Z66	X67	Y67	Z67	X68	Y68	Z68	X69	Y69	Z69	X70	Y70	Z70	X71	Y71	Z71	X72	Y72	Z72	X73	Y73	Z73	X74	Y74	Z74	

176	18.767	-1482.73239	1019.51546	-10.61271	-1707.16080	1019.28185	-29.10834	-1672.87186	1082.45209	-274.90316	-1435.99731	1072.22481	-220.82186	-1637.85507	1486.68625	-13.41137	-1619.33670	1558.77075	-147.88211	-1612.00974	1710.03464	62.15773	-1708.69720	1693.20801	-86.42693	-1551.79977	1687.17819	-96.58682	-1826.64597	1436.30859	-165.44554	-1846.84555	1149.47487	-293.17371	-1763.47748	1145.19966	-285.94749	-1834.77432	1140.77637	-221.83323	-1864.04831	892.08565	-264.55414	-1879.37042	896.58508	-215.42988	-1839.35013	894.78371	-191.87963	-1403.69568	1486.60004	-48.36656	-1310.52063	1180.64507	-58.58951	-1310.92133	1207.06741	-46.92078	-1283.85025	951.67076	-30.37606	-1307.45178	951.59622	17.08161	-1352.85812	943.38448	-1.60955	-1790.23499	899.08875	-179.38393	-1388.28995	882.06566	-102.07643	-1750.06332	471.01730	-18.84949	-1749.78561	504.39220	-135.04447	-1651.23108	478.24806	-80.16573	-1508.92685	440.85789	5.82740	-1442.76031	506.88965	-56.02013	-1565.55206	490.23537	-78.76637	-1738.15353	168.53203	-93.12065	-1673.17017	175.33506	-128.25558	-1748.55484	169.36775	-159.73933	-1410.25085	260.74654	-263.16957	-1464.07562	312.14159	-317.51192	-1481.03104	260.23943	-264.84344	97.13682	994.06311	-283.85574	314.32013	997.02759	-384.01535	374.74087	1047.24724	-193.54378	196.02606	1040.32692	-117.91879	184.51210	1431.13480	-373.54301	230.98845	1516.12717	-298.34576	138.38677	1540.02411	-511.39561	274.05741	1622.28561	-402.45945	158.07881	1621.47873	-344.42886	441.56887	1370.74234	-375.72807	501.25816	1073.12019	-337.90913	430.81078	1061.70685	-328.26820	475.49000	1092.73026	-415.01545	494.17656	826.76697	-422.07336	486.32912	832.92313	-465.29465	440.41138	842.11403	-461.30424	39.88901	1416.93863	-211.19860	80.19454	1099.63783	-150.11353	-7.79606	1121.72478	-162.30055	32.32242	1099.46472	-92.30665	-25.17839	891.32301	-168.79875	-44.29390	904.12506	-204.78842	-5.69259	903.57193	-229.48732	410.46261	890.52643	-326.46812	80.43805	911.28113	-193.07859	326.59588	429.90910	-428.34972	400.50373	454.28162	-381.38233	294.24263	437.81628	-336.14273	71.09714	421.10310	-302.48518	45.93184	474.02531	-233.41427	168.48244	464.86038	-268.22857	350.64613	169.58893	-410.92335	331.32973	161.55493	-333.66035	193.28106	251.97601	-111.69368	142.41092	273.65284	-56.88621	206.02730	297.38838	-55.38464	-1383.84033	1178.78571	-61.29138	396.66157	155.40053	-357.74086 
177	18.783	-1487.90817	1025.49377	2.69022	-1712.78992	1024.40514	-12.46623	-1681.12350	1086.75072	-258.55324	-1444.10400	1076.81381	-207.55087	-1640.70023	1491.50436	2.75001	-1624.69086	1563.56857	-131.72927	-1612.54898	1713.51059	79.43618	-1711.71555	1698.78998	-67.75878	-1554.99146	1692.66251	-80.62002	-1832.88269	1442.46796	-145.61455	-1857.40555	1155.59639	-272.29864	-1773.98407	1150.75333	-266.37980	-1844.17068	1147.07199	-200.92411	-1874.46136	898.15430	-240.07374	-1889.07761	903.39256	-190.81234	-1848.68576	901.73355	-167.98029	-1406.79565	1490.42435	-37.34773	-1310.49591	1185.50888	-50.34792	-1310.52704	1212.65556	-40.57717	-1276.14555	958.04985	-29.01055	-1296.73508	956.58058	19.46877	-1342.97119	947.15164	3.81020	-1796.25763	901.95313	-165.99047	-1393.83377	888.12630	-86.62689	-1753.76495	470.73677	-17.05306	-1751.01059	505.85514	-132.04363	-1653.31528	479.08672	-76.91323	-1514.54727	450.57198	37.29324	-1448.83987	512.29103	-28.92872	-1571.91879	497.20562	-47.82283	-1739.39514	168.91098	-93.41431	-1673.93158	176.32124	-127.56917	-1749.27612	170.07055	-159.80036	-1425.89111	255.42154	-225.40609	-1481.08871	304.79933	-280.47281	-1496.88614	256.26083	-225.26793	96.79447	997.73369	-294.67829	312.79390	998.09776	-397.91256	375.85281	1051.19202	-208.19984	198.20389	1044.48738	-130.25649	184.35450	1434.03687	-386.73767	231.88936	1519.19708	-312.52161	136.24712	1542.93533	-524.23923	272.91658	1625.62653	-417.03773	157.74923	1624.57626	-357.76375	440.61001	1373.31375	-394.37508	502.54345	1075.51537	-358.19843	432.57088	1064.13445	-346.17630	473.90064	1095.32303	-434.72504	490.54611	829.03465	-442.52373	481.83060	835.78438	-485.76260	436.13312	845.32372	-480.62317	43.04632	1419.88007	-220.19375	86.49940	1102.59377	-154.19991	-2.75293	1124.11461	-168.46615	38.96554	1104.23607	-99.15359	-19.44927	893.38585	-165.84894	-38.87877	904.57954	-201.81753	-0.36890	903.01933	-226.59304	409.23969	893.35800	-341.89144	80.61688	915.89706	-202.52645	327.68597	430.76328	-431.73058	401.41678	455.53577	-384.79874	294.49308	439.78466	-338.85284	61.01438	428.70361	-324.38530	41.12872	481.58897	-253.13522	161.60593	471.24222	-295.36766	351.16394	170.51607	-412.21092	331.59176	163.07102	-335.23575	192.22488	257.25729	-141.22720	145.44082	279.58735	-83.46400	209.01930	302.13331	-85.32194	-1384.18610	1182.92534	-51.15181	397.24644	157.33540	-358.73257 
178	18.800	-1492.94037	1030.72815	16.51561	-1718.24707	1028.51303	3.95466	-1688.80219	1090.70724	-242.28678	-1451.68442	1080.66833	-194.43142	-1643.27698	1495.88913	18.74583	-1629.36081	1568.11798	-115.33922	-1612.54791	1716.26831	96.81834	-1714.39697	1704.15588	-48.74566	-1557.96051	1697.66754	-64.72641	-1838.54752	1448.31146	-126.07594	-1867.88574	1161.45432	-252.42405	-1784.04327	1156.00571	-247.02013	-1852.99911	1153.09586	-180.50190	-1884.64493	904.13414	-215.55820	-1898.65891	910.19592	-166.02098	-1858.05527	908.93753	-143.66854	-1409.65256	1493.95279	-26.30624	-1309.88739	1190.27420	-42.56523	-1309.93668	1218.27957	-34.25431	-1268.99452	964.18190	-27.20779	-1286.61743	961.97830	22.42797	-1333.19672	951.35239	9.30645	-1801.93176	904.58321	-152.71349	-1398.97980	893.70888	-71.32639	-1756.50970	470.44197	-15.77425	-1752.84271	507.49702	-130.42261	-1655.18127	479.94473	-74.12816	-1519.97070	460.28900	67.44417	-1455.15808	518.04016	-3.22070	-1578.42178	503.65974	-18.33887	-1740.41840	169.36752	-93.74477	-1674.91180	177.35907	-126.77999	-1749.90402	170.89970	-159.67999	-1441.76941	248.43464	-185.63662	-1497.12402	295.30178	-240.54554	-1512.21085	250.53823	-183.33887	96.90335	1001.21559	-305.04751	311.63721	1000.20897	-410.91282	376.24516	1055.06981	-221.11034	199.35450	1049.52782	-142.25580	183.68305	1436.87576	-399.65595	232.10594	1522.09137	-326.35036	133.28113	1545.63095	-536.55769	271.28433	1628.68454	-431.07445	156.75795	1627.50641	-370.65941	439.41845	1375.94147	-412.03579	503.24528	1078.22304	-378.54401	433.89072	1066.86401	-363.52051	471.53069	1098.13950	-453.87093	486.80759	831.77788	-463.28747	477.10915	839.10469	-506.52142	431.53736	848.96744	-499.87122	45.79073	1423.12637	-229.00352	92.50064	1105.82321	-159.63118	2.21953	1126.70921	-174.77665	45.27549	1108.97240	-105.96400	-13.97361	895.95695	-162.29816	-33.55460	905.54802	-199.93032	4.90839	903.20244	-224.35478	408.17459	895.52032	-355.70873	80.38870	920.77835	-210.89186	328.46905	431.80397	-434.54304	402.08973	457.12193	-387.61787	294.85645	441.92661	-341.70219	51.72338	435.98438	-344.58439	35.98550	487.81902	-271.41541	154.68550	477.68764	-320.33730	351.81305	171.88852	-413.46718	331.61797	164.97448	-336.51451	190.26188	260.35076	-171.43147	146.67261	281.64740	-111.14653	210.21854	303.77193	-115.39739	-1383.55896	1186.83182	-41.90930	397.77908	159.68660	-359.56036 
179	18.817	-1497.80426	1034.70520	30.44800	-1723.44360	1031.67778	20.08749	-1696.11710	1094.33624	-226.24113	-1458.78326	1084.03816	-181.13712	-1645.51544	1499.69772	34.68271	-1633.72116	1572.20154	-99.28585	-1611.80237	1718.26660	114.05207	-1716.53412	1709.01016	-29.56340	-1560.65338	1702.23053	-48.83764	-1843.64883	1453.71460	-106.79357	-1877.50626	1166.87607	-231.79312	-1793.82202	1160.72815	-228.03459	-1861.86264	1158.78914	-159.79493	-1894.57993	909.82651	-190.91230	-1908.09738	916.86897	-141.27042	-1867.19070	915.87517	-119.48677	-1412.22656	1496.83792	-15.22171	-1309.00711	1194.63600	-34.92511	-1309.27124	1223.75092	-28.05899	-1262.66129	970.27344	-24.99605	-1277.25189	967.36153	25.61306	-1324.15222	955.74799	15.28350	-1806.76895	906.77094	-139.55170	-1404.11041	898.71475	-57.52506	-1758.54675	470.23338	-14.50928	-1754.57428	509.24370	-128.55910	-1657.40936	480.94868	-71.60759	-1525.56519	469.83734	96.35390	-1461.52817	522.59689	21.52580	-1584.87015	509.11072	9.40194	-1741.44058	169.96283	-93.69911	-1675.92880	178.14045	-126.25787	-1750.61386	171.70189	-159.62402	-1456.49384	240.42503	-143.74740	-1514.12216	284.13736	-200.74650	-1527.13638	243.59612	-139.63875	96.98948	1005.02838	-315.83769	310.60181	1003.11775	-423.31749	376.09856	1058.36433	-233.60167	200.21240	1054.47853	-153.76743	182.09639	1439.58923	-412.01874	232.00802	1525.13290	-339.78466	129.71053	1548.08578	-548.46916	268.72293	1631.45798	-445.04036	154.82081	1630.09079	-383.08426	437.73636	1378.72086	-429.03629	503.14289	1081.00143	-398.37894	434.34383	1069.67911	-380.98347	468.70911	1101.31577	-472.56142	482.45949	834.94507	-483.88626	471.69922	842.81685	-526.95179	426.36635	852.91840	-518.92662	48.00313	1426.70044	-237.54509	97.54829	1109.39545	-168.02412	6.95216	1129.73381	-180.87856	52.14326	1113.84270	-113.15531	-8.88848	899.43680	-159.98912	-28.44556	907.29797	-197.86396	9.87578	904.14757	-222.24840	407.37896	898.45001	-365.81966	77.35670	925.81978	-228.90419	328.94203	433.19935	-437.23644	402.37137	459.24561	-390.27901	295.31176	444.31377	-344.82391	43.11307	443.79379	-362.99877	30.46718	492.62531	-289.07253	147.12507	484.07104	-341.12141	352.51236	173.65549	-414.81720	331.97105	167.28102	-337.90817	187.75778	261.53574	-202.54715	146.41789	280.27044	-140.38254	209.49070	302.51846	-145.39865	-1382.46384	1190.08430	-32.82438	398.50033	162.43660	-360.49244 
